<svg
  xmlns="http://www.w3.org/2000/svg"
  viewBox="0 0 64 64"
>
  <defs>
    <linearGradient
      id="background"
      x1="8"
      y1="8"
      x2="56"
      y2="56"
      gradientUnits="userSpaceOnUse"
    >
      <stop stop-color="#b77a4c" />
      <stop offset="1" stop-color="#8f5833" />
    </linearGradient>
  </defs>

  <rect
    width="64"
    height="64"
    rx="16"
    fill="url(#background)"
  />

  <path
    d="M18 29h28v7c0 2.2-1.8 4-4 4-1.7 0-3.1-1-3.7-2.4A4 4 0 0 1 30.7 37a4 4 0 0 1-7.7 0A4 4 0 0 1 18 36v-7Z"
    fill="#fff"
  />

  <path
    d="M20 40h24v9H20z"
    fill="#fff"
  />

  <path
    d="M17 49h30"
    fill="none"
    stroke="#fff"
    stroke-width="4"
    stroke-linecap="round"
  />

  <path
    d="M32 25v-7"
    fill="none"
    stroke="#fff"
    stroke-width="3"
    stroke-linecap="round"
  />

  <path
    d="M32 18c-3-2-2-5 0-7 2 2 3 5 0 7Z"
    fill="#fff"
  />
</svg>